<svg width="25" height="32" viewBox="0 0 25 32" fill="none" xmlns="http://www.w3.org/2000/svg">
<path d="M0.833374 31.0835C0.833374 27.9893 2.06254 25.0218 4.25046 22.8339C6.43839 20.646 9.40585 19.4168 12.5 19.4168C15.5942 19.4168 18.5617 20.646 20.7496 22.8339C22.9375 25.0218 24.1667 27.9893 24.1667 31.0835H21.25C21.25 28.7629 20.3282 26.5373 18.6872 24.8963C17.0463 23.2554 14.8207 22.3335 12.5 22.3335C10.1794 22.3335 7.9538 23.2554 6.31286 24.8963C4.67191 26.5373 3.75004 28.7629 3.75004 31.0835H0.833374ZM12.5 17.9585C7.66567 17.9585 3.75004 14.0429 3.75004 9.2085C3.75004 4.37412 7.66567 0.458496 12.5 0.458496C17.3344 0.458496 21.25 4.37412 21.25 9.2085C21.25 14.0429 17.3344 17.9585 12.5 17.9585ZM12.5 15.0418C15.723 15.0418 18.3334 12.4314 18.3334 9.2085C18.3334 5.98558 15.723 3.37516 12.5 3.37516C9.27712 3.37516 6.66671 5.98558 6.66671 9.2085C6.66671 12.4314 9.27712 15.0418 12.5 15.0418Z" fill="black"/>
</svg>
