<svg width="22" height="20" viewBox="0 0 22 20" fill="none" xmlns="http://www.w3.org/2000/svg">
<path d="M1.90421 1.90422C3.06427 0.74395 4.62021 0.0653094 6.2598 0.00447365C7.8994 -0.0563621 9.50135 0.505108 10.7442 1.57622C11.986 0.506893 13.5858 -0.0539461 15.2234 0.00598499C16.861 0.065916 18.4156 0.742195 19.5759 1.89943C20.7361 3.05666 21.4165 4.60945 21.4807 6.24691C21.5449 7.88438 20.9883 9.48567 19.9222 10.7302L12.1572 18.5202C11.8005 18.8771 11.322 19.0859 10.8177 19.1048C10.3135 19.1238 9.8207 18.9514 9.43821 18.6222L9.32821 18.5212L1.56421 10.7302C0.498696 9.48675 -0.0582136 7.88693 0.00482177 6.2506C0.0678572 4.61428 0.746192 3.06204 1.90421 1.90422V1.90422ZM3.31821 3.31822C2.50045 4.13621 2.02906 5.23767 2.00187 6.39399C1.97469 7.55032 2.39379 8.67271 3.17221 9.52822L3.31821 9.68222L10.7432 17.1072L16.0462 11.8032L12.5112 8.26822L11.4512 9.32822C11.1727 9.60689 10.842 9.82796 10.478 9.97883C10.114 10.1297 9.72391 10.2074 9.32991 10.2075C8.5342 10.2077 7.771 9.89175 7.20821 9.32922C6.64542 8.7667 6.32914 8.00365 6.32895 7.20793C6.32876 6.41221 6.64468 5.64901 7.20721 5.08622L9.30921 2.98322C8.47268 2.3156 7.42562 1.96791 6.35589 2.00255C5.28617 2.03719 4.2638 2.45188 3.47221 3.17222L3.31821 3.31822V3.31822ZM11.8042 6.14622C11.9917 5.95875 12.246 5.85344 12.5112 5.85344C12.7764 5.85344 13.0307 5.95875 13.2182 6.14622L17.4602 10.3882L18.1682 9.68222C18.9997 8.85136 19.473 7.72814 19.487 6.55278C19.5011 5.37743 19.0546 4.24324 18.2432 3.39278C17.4318 2.54231 16.3199 2.04309 15.1452 2.00188C13.9704 1.96066 12.8262 2.38072 11.9572 3.17222L11.8042 3.31822L8.62221 6.50022C8.44888 6.67344 8.34518 6.90427 8.3308 7.14889C8.31642 7.39351 8.39236 7.6349 8.54421 7.82722L8.62221 7.91422C8.79542 8.08755 9.02625 8.19125 9.27087 8.20563C9.51549 8.22001 9.75688 8.14407 9.94921 7.99222L10.0362 7.91422L11.8042 6.14622V6.14622Z" fill="white"/>
</svg>
